<?xml version="1.0" standalone="no"?>
<!DOCTYPE svg PUBLIC "-//W3C//DTD SVG 20010904//EN"
 "http://www.w3.org/TR/2001/REC-SVG-20010904/DTD/svg10.dtd">
<svg version="1.0" xmlns="http://www.w3.org/2000/svg"
 width="408.000000pt" height="612.000000pt" viewBox="0 0 408.000000 612.000000"
 preserveAspectRatio="xMidYMid meet">

<g transform="translate(0.000000,612.000000) scale(0.100000,-0.100000)"
fill="#000000" stroke="none">
<path d="M1417 6097 c-52 -13 -101 -52 -93 -73 9 -22 -10 -25 -70 -9 -69 18
-172 19 -225 3 -50 -14 -118 -72 -135 -115 -22 -52 -17 -82 17 -114 l31 -29
-57 -51 c-90 -83 -117 -163 -78 -229 l16 -29 -81 -85 c-139 -148 -222 -288
-262 -446 -22 -85 -43 -271 -38 -330 3 -30 0 -35 -17 -33 -11 1 -62 5 -114 9
l-94 7 6 -114 c7 -118 29 -220 65 -301 25 -57 101 -141 143 -158 16 -7 28 -15
26 -19 -53 -98 -71 -151 -71 -201 2 -109 88 -220 243 -314 152 -91 342 -147
617 -181 71 -9 129 -17 131 -18 1 -1 -32 -29 -74 -62 -42 -33 -96 -83 -121
-111 l-46 -52 -34 15 c-47 19 -91 3 -138 -50 -20 -23 -53 -61 -74 -84 -21 -23
-40 -57 -44 -74 -3 -17 -19 -46 -35 -64 -29 -34 -29 -34 -27 -157 2 -142 12
-171 78 -218 46 -33 152 -70 202 -70 l33 0 -5 -157 c-7 -241 33 -407 132 -554
l43 -66 -80 -59 c-108 -80 -229 -200 -256 -256 -26 -54 -27 -83 -12 -283 13
-170 9 -222 -21 -261 -20 -24 -26 -26 -72 -21 -28 3 -103 22 -166 43 -78 25
-139 38 -190 41 -69 4 -79 2 -127 -26 -42 -25 -64 -49 -115 -127 -52 -80 -70
-100 -110 -120 -40 -20 -49 -30 -58 -65 -11 -40 -7 -107 11 -165 18 -58 101
-114 169 -114 23 0 41 -11 73 -44 54 -57 108 -68 195 -40 l57 19 40 -27 c74
-51 194 -57 260 -14 14 9 39 36 56 59 33 45 49 55 91 56 20 1 32 -8 48 -34 32
-51 80 -84 142 -97 76 -16 172 8 251 62 32 22 62 40 66 40 5 0 26 13 48 29 77
56 94 179 44 311 -25 65 -24 60 -6 60 21 0 20 1 -26 77 -66 107 -166 301 -194
378 -30 80 -29 131 6 212 19 45 100 166 118 178 5 3 49 -6 98 -21 63 -19 120
-27 203 -31 137 -7 207 8 322 66 l77 39 29 -47 c60 -96 71 -118 96 -193 42
-125 38 -149 -53 -333 -44 -88 -101 -197 -126 -242 -34 -62 -42 -83 -31 -83
20 0 20 6 -6 -65 -15 -42 -22 -84 -22 -141 -1 -71 2 -85 26 -121 18 -27 45
-50 80 -67 29 -15 71 -40 93 -56 77 -57 220 -74 294 -35 30 16 73 60 91 94 11
21 17 23 53 17 27 -4 47 -14 57 -28 42 -62 74 -89 126 -104 68 -19 151 -6 209
34 l40 27 57 -19 c86 -27 140 -17 197 40 31 32 52 44 73 44 37 0 96 25 126 53
37 34 52 72 58 140 7 90 -3 117 -60 148 -37 21 -60 46 -112 122 -42 63 -79
107 -106 124 -38 25 -50 28 -127 27 -71 0 -106 -7 -201 -38 -63 -21 -138 -40
-166 -43 -46 -5 -53 -3 -68 18 -32 46 -36 89 -25 249 17 238 17 250 -16 306
-34 59 -161 185 -275 274 -45 36 -92 72 -102 80 -19 15 -19 17 17 77 l36 60
132 6 c150 6 220 22 327 74 136 66 230 188 264 343 8 36 22 136 31 222 30 288
93 493 167 538 18 11 40 20 48 20 34 0 100 -47 191 -136 52 -51 108 -98 123
-104 86 -32 212 14 253 93 10 20 16 55 16 90 -1 89 -52 185 -146 274 -85 81
-152 122 -257 157 -253 84 -471 8 -570 -198 -59 -125 -88 -277 -115 -603 -20
-248 -54 -332 -163 -402 -51 -32 -165 -64 -215 -59 -29 3 -30 5 -47 88 -10 47
-40 148 -67 226 l-50 140 23 27 c18 21 32 27 64 27 47 0 92 20 114 52 23 32
20 53 -14 91 -16 19 -30 37 -30 40 0 2 21 7 46 10 74 8 129 75 122 147 -4 44
-37 67 -118 83 l-65 13 -6 54 c-14 119 -57 220 -136 316 l-46 58 34 25 c19 14
61 53 95 86 53 55 66 63 110 69 142 21 301 87 413 171 125 95 259 273 325 433
68 162 90 378 52 492 -38 110 -189 220 -303 220 l-52 0 -45 96 c-72 151 -167
287 -275 394 -198 195 -434 310 -705 341 l-105 12 -21 51 c-28 70 -98 160
-159 206 -84 64 -201 90 -294 67z m-254 -127 c-14 -6 -32 -6 -45 0 -19 7 -15
9 22 9 37 0 41 -2 23 -9z m-80 -7 c-7 -2 -19 -2 -25 0 -7 3 -2 5 12 5 14 0 19
-2 13 -5z m150 0 c-7 -2 -21 -2 -30 0 -10 3 -4 5 12 5 17 0 24 -2 18 -5z
m-194 -6 c-2 -2 -17 -11 -34 -21 l-30 -17 24 20 c13 12 28 21 34 21 6 0 8 -1
6 -3z m256 -8 c19 -9 19 -9 -1 -5 -14 2 -32 -6 -49 -21 l-27 -26 64 -65 c107
-110 132 -132 148 -132 13 0 13 -1 0 -10 -8 -5 -26 -9 -40 -9 -19 1 -20 2 -6
6 16 4 10 13 -34 54 -29 27 -49 49 -44 50 5 0 -1 4 -13 9 -13 5 -23 16 -23 25
0 13 -12 19 -32 16 -5 0 -7 2 -7 7 6 38 -23 43 -52 10 -16 -20 -18 -21 -19 -5
0 10 7 20 15 23 21 8 19 24 -7 51 -12 13 -16 23 -10 23 6 0 18 -9 26 -21 15
-23 31 -19 54 13 14 20 27 21 57 7z m156 -61 c65 -28 117 -53 115 -55 -3 -3
-235 94 -245 103 -14 12 24 -2 130 -48z m119 -23 c13 -14 21 -25 18 -25 -2 0
-15 11 -28 25 -13 14 -21 25 -18 25 2 0 15 -11 28 -25z m180 -74 c0 -13 -89
-101 -102 -101 -7 0 91 109 100 110 1 0 2 -4 2 -9z m-512 -18 c-10 -2 -28 -2
-40 0 -13 2 -5 4 17 4 22 1 32 -1 23 -4z m-75 -10 c-7 -2 -21 -2 -30 0 -10 3
-4 5 12 5 17 0 24 -2 18 -5z m-56 -9 c-3 -3 -12 -4 -19 -1 -8 3 -5 6 6 6 11 1
17 -2 13 -5z m-63 -34 c-32 -32 -68 -44 -43 -13 13 15 12 15 -17 0 -34 -18
-80 -59 -107 -97 -17 -24 -17 -23 0 8 22 41 75 85 134 112 60 27 67 25 33 -10z
m-56 -52 c-3 -7 -13 -15 -24 -17 -16 -3 -17 -1 -5 13 16 19 34 21 29 4z m652
3 c0 -5 -7 -12 -16 -15 -24 -9 -28 -7 -14 9 14 17 30 20 30 6z m-158 -41 c22
-22 43 -40 47 -40 4 0 18 11 31 25 25 27 40 32 40 14 0 -6 -8 -13 -18 -16 -10
-2 -23 -12 -29 -22 -10 -16 9 -39 145 -175 85 -86 153 -158 151 -161 -5 -4
-83 69 -115 107 -6 7 -26 27 -45 43 -19 17 -46 44 -60 60 -15 17 -44 45 -65
63 -35 30 -38 31 -56 16 -10 -10 -18 -12 -18 -6 0 6 8 16 18 22 15 9 11 16
-37 60 -30 28 -49 50 -41 50 7 0 31 -18 52 -40z m-82 23 c-8 -3 -27 -12 -42
-20 -16 -7 -28 -11 -28 -9 0 9 54 35 70 35 13 -1 13 -1 0 -6z m-473 -49 c-21
-20 -41 -33 -44 -30 -9 9 49 65 67 65 9 0 0 -14 -23 -35z m1313 11 c-7 -9 -15
-13 -17 -11 -7 7 7 26 19 26 6 0 6 -6 -2 -15z m-58 -55 c-33 -32 -56 -42 -29
-12 10 10 14 22 10 27 -5 4 -3 5 3 2 7 -4 17 0 24 8 7 9 15 13 18 11 2 -3 -9
-19 -26 -36z m-702 -49 c0 -12 -20 -25 -27 -18 -7 7 6 27 18 27 5 0 9 -4 9 -9z
m650 -1 c0 -6 -12 -20 -26 -33 -15 -12 -43 -40 -63 -61 -20 -22 -47 -49 -60
-60 -13 -12 -59 -57 -102 -101 -76 -78 -78 -80 -56 -93 22 -13 22 -13 -3 -6
-14 4 -41 13 -60 21 -29 11 -30 12 -7 8 26 -5 40 5 139 102 60 59 137 136 170
171 65 65 68 68 68 52z m-700 -45 c-7 -9 -15 -13 -18 -10 -3 2 1 11 8 20 7 9
15 13 18 10 3 -2 -1 -11 -8 -20z m-36 -39 c-6 -16 -24 -23 -24 -8 0 10 22 33
27 28 2 -2 1 -11 -3 -20z m-60 -62 c-44 -35 -51 -29 -13 11 19 19 36 30 38 24
2 -6 -9 -22 -25 -35z m-160 -82 c34 -31 36 -35 23 -55 -7 -11 -20 -23 -28 -25
-9 -3 -7 3 5 17 20 22 20 22 -22 64 -23 24 -42 46 -42 51 0 4 6 1 14 -6 7 -7
30 -28 50 -46z m106 33 c-7 -8 -17 -15 -22 -15 -6 0 -5 7 2 15 7 8 17 15 22
15 6 0 5 -7 -2 -15z m-574 -72 c-46 -60 -53 -92 -22 -103 15 -5 14 -8 -8 -18
-13 -6 -44 -28 -67 -49 l-42 -38 23 45 c35 70 142 220 157 220 2 0 -16 -26
-41 -57z m544 41 c0 -3 -7 -12 -15 -21 -20 -19 -32 -9 -15 12 12 15 30 20 30
9z m20 -95 l42 -41 51 21 c77 30 127 41 177 40 40 -1 38 -3 -20 -9 -75 -9
-146 -32 -210 -67 -25 -14 -37 -18 -27 -10 17 14 15 18 -30 61 -26 25 -42 46
-36 46 6 0 30 -18 53 -41z m639 6 c19 -19 31 -35 27 -35 -12 0 -76 52 -76 61
0 17 15 9 49 -26z m-209 5 c15 -5 -1 -6 -40 -3 -36 3 -67 7 -69 9 -8 7 84 2
109 -6z m-542 -22 c-3 -7 -13 -15 -24 -17 -16 -3 -17 -1 -5 13 16 19 34 21 29
4z m1292 -13 c-7 -9 -15 -13 -18 -10 -3 2 1 11 8 20 7 9 15 13 18 10 3 -2 -1
-11 -8 -20z m-1713 -21 c-3 -3 -12 -4 -19 -1 -8 3 -5 6 6 6 11 1 17 -2 13 -5z
m126 -23 c25 -17 58 -48 73 -71 19 -28 30 -38 38 -30 5 5 17 10 26 10 12 -1
10 -4 -6 -18 l-20 -17 26 -56 26 -56 30 40 c34 46 128 135 176 167 26 17 24
14 -7 -11 -53 -44 -133 -124 -172 -172 l-30 -38 -32 67 c-48 102 -94 159 -153
188 -29 14 -45 26 -37 26 8 0 36 -13 62 -29z m257 20 c0 -12 -20 -25 -27 -18
-7 7 6 27 18 27 5 0 9 -4 9 -9z m590 -7 c223 -52 435 -237 514 -446 l26 -68
-253 0 c-382 0 -621 -34 -860 -121 -146 -54 -179 -57 -310 -24 -59 14 -158 37
-220 49 l-112 24 1 138 c1 157 4 168 88 282 58 78 123 122 183 122 80 0 156
-95 212 -266 23 -69 31 -85 37 -69 17 42 100 150 165 213 159 157 334 212 529
166z m180 1 c17 -9 30 -18 30 -21 0 -4 -59 23 -69 32 -10 9 13 3 39 -11z m96
-17 c19 -18 34 -36 34 -40 0 -18 -19 -5 -49 32 -39 48 -31 52 15 8z m424 7
c-7 -9 -15 -13 -18 -10 -3 2 1 11 8 20 7 9 15 13 18 10 3 -2 -1 -11 -8 -20z
m-1340 -30 c-7 -9 -15 -13 -18 -10 -3 2 1 11 8 20 7 9 15 13 18 10 3 -2 -1
-11 -8 -20z m912 -17 c16 -11 33 -16 39 -12 6 3 43 -25 85 -67 51 -50 70 -76
61 -81 -7 -5 -8 -8 -1 -8 6 0 19 9 29 20 10 11 23 20 29 20 6 -1 1 -9 -11 -19
l-23 -19 132 -131 c72 -72 126 -131 120 -131 -6 0 -67 57 -136 126 -69 69
-126 122 -126 118 0 -4 -11 3 -25 16 -15 14 -23 30 -20 39 3 9 3 12 -1 9 -3
-4 -34 17 -68 45 -33 29 -78 63 -98 76 -21 12 -38 25 -38 27 0 6 14 -2 52 -28z
m398 23 c0 -12 -20 -25 -27 -18 -7 7 6 27 18 27 5 0 9 -4 9 -9z m-1349 -54
c-16 -16 -26 0 -10 19 9 11 15 12 17 4 2 -6 -1 -17 -7 -23z m1264 -37 c-27
-28 -53 -50 -58 -50 -6 0 14 24 44 54 30 30 56 52 58 50 3 -2 -17 -27 -44 -54z
m880 -150 c27 -13 70 -44 96 -69 66 -64 84 -128 76 -271 -21 -404 -327 -773
-706 -851 -33 -7 -63 -11 -66 -8 -2 3 0 21 5 40 25 88 2 204 -60 294 l-31 46
11 72 c40 263 123 455 257 598 159 168 286 213 418 149z m-919 -92 c19 -37 34
-73 34 -80 0 -7 -16 21 -35 61 -20 40 -45 88 -56 105 l-21 31 22 -25 c12 -14
38 -55 56 -92z m344 -92 c0 -2 -8 -10 -17 -17 -16 -13 -17 -12 -4 4 13 16 21
21 21 13z m-123 -50 c3 -3 -35 -6 -85 -6 -51 0 -92 3 -92 8 0 9 168 8 177 -2z
m-552 -70 l60 -12 -165 -8 c-91 -4 -184 -10 -208 -14 l-42 -7 134 -207 c74
-115 133 -208 131 -208 -1 0 -75 92 -164 203 l-161 204 -37 -7 c-21 -3 -37
-11 -36 -17 1 -5 37 -69 80 -142 112 -190 113 -191 109 -191 -2 0 -59 74 -127
165 -120 159 -125 164 -154 159 -33 -7 -188 -54 -194 -60 -2 -2 -7 -24 -12
-50 -8 -42 -1 -149 17 -244 3 -19 0 -16 -12 10 -36 77 -56 271 -31 302 6 9 41
25 77 36 264 84 577 122 735 88z m-1336 -77 c80 -17 156 -37 170 -45 24 -13
18 -13 -61 -8 -49 4 -88 4 -88 0 0 -4 11 -57 25 -118 14 -61 25 -116 25 -122
0 -6 -28 50 -61 126 l-61 136 -44 4 c-24 2 -44 0 -44 -4 0 -4 16 -51 35 -104
19 -53 35 -99 34 -103 0 -3 -27 46 -59 110 -46 92 -67 121 -95 139 -19 12 -35
24 -35 27 0 9 107 -7 259 -38z m1645 -151 c-19 -68 -84 -205 -124 -264 -18
-25 -59 -74 -92 -110 -33 -35 -58 -64 -56 -64 25 0 129 -25 162 -40 175 -75
218 -276 87 -410 -41 -42 -56 -50 -131 -70 -270 -72 -618 -78 -980 -19 -238
39 -438 123 -561 237 -111 103 -137 193 -84 299 35 69 47 77 110 74 121 -6
225 79 274 225 15 44 25 61 43 65 41 12 118 9 152 -5 27 -11 34 -21 39 -52 11
-65 71 -175 123 -226 73 -71 194 -118 300 -118 49 0 42 -14 -18 -40 -93 -40
-220 -61 -410 -67 l-177 -6 -7 38 c-7 42 9 131 31 161 7 11 31 26 52 32 22 6
49 22 62 36 l22 24 -26 20 c-54 43 -187 40 -193 -4 -2 -12 8 -34 21 -50 l24
-28 -20 -45 c-13 -29 -21 -69 -21 -108 -1 -70 -5 -73 -79 -52 -53 14 -80 44
-73 77 5 25 4 24 -11 -5 -15 -30 -15 -34 1 -58 9 -14 32 -33 51 -42 36 -17 55
-57 71 -145 6 -35 4 -38 -17 -39 -45 -1 59 -40 145 -54 115 -19 320 -19 379
-1 64 19 123 70 198 169 64 86 79 99 79 73 0 -27 18 -18 25 13 4 17 0 44 -9
65 -15 36 -15 36 12 41 15 3 54 13 87 21 182 47 313 188 364 392 l17 67 75 22
c104 31 100 32 83 -29z m79 6 c-6 -3 -19 -28 -28 -55 -10 -28 -19 -49 -21 -47
-2 2 4 27 13 56 11 34 22 52 32 51 10 0 11 -3 4 -5z m-55 -139 c0 -13 -4 -23
-8 -20 -4 2 -15 -14 -25 -36 -10 -22 -22 -42 -27 -45 -5 -3 6 24 24 60 18 36
33 66 34 66 1 0 2 -11 2 -25z m42 -57 c0 -6 -7 -5 -15 2 -8 7 -15 17 -15 22 0
6 7 5 15 -2 8 -7 15 -17 15 -22z m11 -31 c-10 -9 -11 -8 -5 6 3 10 9 15 12 12
3 -3 0 -11 -7 -18z m-131 -46 c-5 -11 -15 -23 -21 -27 -6 -3 -3 5 6 20 20 30
30 35 15 7z m-49 -69 c-11 -16 -27 -35 -36 -42 -13 -11 -13 -15 -3 -21 10 -7
9 -9 -4 -9 -25 0 -23 5 19 56 42 50 54 58 24 16z m41 -98 c55 -28 148 -117
148 -142 0 -9 -14 5 -30 30 -30 46 -71 79 -145 117 -22 11 -36 20 -32 21 4 0
31 -12 59 -26z m-729 -167 c-15 -13 -46 -36 -68 -50 -55 -37 -33 -33 42 7 63
34 63 34 44 7 -47 -65 -105 -121 -149 -143 -44 -22 -58 -23 -227 -22 -211 1
-239 7 -243 52 l-3 31 63 7 63 7 -62 13 c-76 16 -79 17 -86 50 -4 22 -2 25 17
20 11 -3 77 -9 146 -12 140 -7 299 6 406 35 91 24 90 24 57 -2z m971 -464 c9
-18 15 -33 13 -33 -5 0 -67 99 -67 107 0 10 36 -41 54 -74z m1044 40 l-37 -4
-3 -92 -3 -92 -5 98 -5 97 45 -2 c43 -1 43 -2 8 -5z m-1402 -38 c34 -46 53
-99 54 -155 0 -43 -4 -49 -66 -110 -36 -36 -92 -96 -124 -135 l-57 -70 -194 0
c-193 0 -194 0 -249 28 -95 49 -94 47 -48 130 49 87 106 173 165 248 l44 56
132 7 c73 3 164 12 202 20 107 20 111 20 141 -19z m1259 25 c-3 -5 -14 -10
-23 -10 -15 0 -15 2 -2 10 20 13 33 13 25 0z m228 3 c-7 -2 -21 -2 -30 0 -10
3 -4 5 12 5 17 0 24 -2 18 -5z m92 -24 c31 -12 55 -23 53 -24 -2 -2 -33 7 -68
20 -36 13 -60 24 -53 24 7 1 37 -8 68 -20z m-410 -20 l-49 -31 24 -14 c25 -13
25 -13 3 -14 -13 0 -23 5 -23 11 0 8 -6 7 -17 -2 -17 -13 -17 -13 -3 5 19 24
89 76 103 76 6 0 -11 -14 -38 -31z m124 -66 c-2 -92 -6 -82 -11 25 -2 34 0 62
5 62 4 0 6 -39 6 -87z m496 -48 c34 -33 68 -71 75 -85 14 -29 9 -23 -48 46
-23 28 -68 69 -99 90 -76 51 -88 62 -33 33 24 -13 72 -51 105 -84z m-1401 69
c5 -13 1 -14 -23 -9 -18 4 -44 0 -67 -10 -22 -9 -34 -11 -27 -4 6 6 33 18 60
25 26 7 49 13 49 13 1 1 5 -6 8 -15z m1119 -11 c-18 -2 -48 -2 -65 0 -18 2 -4
4 32 4 36 0 50 -2 33 -4z m-303 -13 c8 -5 12 -11 9 -14 -3 -3 -14 1 -25 9 -21
16 -8 20 16 5z m222 -30 c6 0 6 -6 -2 -15 -7 -8 -18 -15 -24 -14 -7 0 -6 2 1
6 7 2 11 14 9 26 -1 12 -1 16 1 10 3 -7 9 -13 15 -13z m103 -5 c-10 -5 -27
-18 -37 -27 -26 -26 -32 -22 -11 7 10 13 26 25 36 25 9 0 17 8 18 18 0 13 2
14 6 2 4 -8 -2 -19 -12 -25z m-2282 -6 c-8 -8 -8 -20 -3 -34 7 -19 5 -24 -13
-29 -34 -9 -39 16 -10 46 15 16 29 28 32 28 3 0 0 -5 -6 -11z m1153 -5 c19
-15 19 -16 -1 -9 -11 4 -33 11 -50 15 l-30 8 31 1 c16 1 39 -6 50 -15z m752 4
c7 -7 12 -19 12 -27 0 -11 -5 -9 -16 7 -31 45 -87 19 -99 -47 -6 -35 10 -90
29 -103 22 -15 56 -7 71 16 9 13 24 27 33 30 15 5 15 5 0 -8 -10 -7 -18 -18
-18 -24 0 -33 -78 -42 -105 -12 -27 30 -30 135 -4 161 21 21 78 26 97 7z m69
-40 c-2 -13 -4 -5 -4 17 -1 22 1 32 4 23 2 -10 2 -28 0 -40z m-920 -48 c24
-10 63 -33 88 -50 27 -19 67 -35 102 -41 126 -22 143 -36 119 -94 -30 -70
-112 -84 -159 -27 -63 77 -124 119 -201 141 -44 12 -45 12 40 -53 66 -50 112
-107 138 -171 10 -22 29 -52 43 -67 26 -27 26 -28 8 -48 -22 -24 -77 -27 -98
-5 -8 8 -33 52 -55 98 -41 87 -68 114 -152 157 l-45 23 64 -69 c46 -50 72 -90
96 -146 30 -72 31 -78 15 -93 -49 -44 -116 1 -145 98 -9 29 -24 63 -33 75
l-18 24 -38 -25 c-34 -24 -40 -25 -74 -13 -21 8 -56 17 -80 21 -23 4 -42 9
-42 12 0 3 29 40 65 82 65 77 138 142 197 174 43 22 112 21 165 -3z m-1162
-30 c-10 -11 -20 -18 -23 -15 -7 6 18 35 31 35 5 0 2 -9 -8 -20z m163 13 c-18
-41 -60 -113 -65 -113 -3 0 -14 7 -23 15 -16 15 -18 12 -29 -30 -6 -25 -13
-45 -15 -45 -3 0 -16 4 -30 10 l-26 10 0 -59 0 -58 -50 -7 c-27 -4 -50 -9 -50
-12 0 -2 12 -22 26 -44 l26 -39 -32 -28 c-51 -44 -59 -46 -126 -40 -83 8 -119
27 -134 72 -13 41 -6 71 25 105 13 14 28 44 35 68 6 23 20 48 31 55 11 6 36
34 55 60 63 87 115 88 167 6 l31 -51 15 23 c27 42 81 88 114 98 41 12 60 13
55 4z m2602 -57 c0 -12 -5 -7 -19 24 -11 24 -11 24 3 6 9 -11 16 -24 16 -30z
m-846 -62 c26 -11 27 -13 9 -14 -12 0 -25 5 -28 10 -4 6 -10 8 -15 5 -5 -3
-11 4 -15 15 -12 38 -23 10 -39 -102 -9 -62 -18 -126 -20 -143 -3 -16 -3 2 -1
42 2 39 11 113 21 164 l17 92 20 -27 c11 -16 34 -34 51 -42z m63 -20 c-3 -3
-12 -4 -19 -1 -8 3 -5 6 6 6 11 1 17 -2 13 -5z m-1837 -90 c0 -3 -10 2 -22 10
-29 20 -38 20 -38 -1 0 -9 -3 -14 -6 -10 -3 3 -3 15 1 26 l6 21 30 -21 c16
-11 29 -23 29 -25z m-80 -19 c0 -2 -6 -2 -14 1 -11 4 -16 -4 -18 -33 -2 -25
-8 -38 -18 -39 -9 0 -10 1 -2 3 7 3 12 22 12 49 0 42 1 44 20 34 11 -6 20 -13
20 -15z m176 -33 c-5 -4 -86 36 -86 43 0 3 20 -5 45 -17 24 -12 43 -23 41 -26z
m113 -18 c9 -8 -65 -2 -84 6 -13 6 -2 7 30 3 28 -3 52 -7 54 -9z m461 -13 l25
-12 -25 7 c-14 3 -119 10 -235 14 l-210 7 210 -2 c139 -1 218 -6 235 -14z
m-730 -19 c0 -13 -12 -22 -22 -16 -10 6 -1 24 13 24 5 0 9 -4 9 -8z m546 -26
c29 -31 33 -33 48 -18 8 9 18 13 21 10 3 -3 -19 -31 -50 -63 -31 -31 -59 -54
-62 -51 -4 4 10 24 31 45 l38 39 -36 28 c-34 28 -45 44 -28 44 4 0 21 -15 38
-34z m114 25 c0 -5 -7 -12 -16 -15 -24 -9 -28 -7 -14 9 14 17 30 20 30 6z
m140 -6 c14 -8 21 -14 15 -14 -5 0 -21 6 -35 14 -14 8 -20 14 -15 14 6 0 21
-6 35 -14z m1024 -1 c9 -24 7 -28 -9 -14 -17 14 -20 30 -6 30 5 0 12 -7 15
-16z m37 -41 c13 -16 12 -17 -3 -4 -17 13 -22 21 -14 21 2 0 10 -8 17 -17z
m-144 -70 c-2 -16 -4 -5 -4 22 0 28 2 40 4 28 2 -13 2 -35 0 -50z m-1094 7
c16 -17 33 -28 38 -25 5 4 6 0 3 -8 -3 -8 2 -17 10 -20 9 -4 16 -12 16 -18 0
-6 -20 7 -45 30 -25 23 -49 40 -53 37 -4 -2 -9 4 -9 15 -2 26 7 24 40 -11z
m1247 21 c0 -5 -7 -12 -16 -15 -14 -5 -15 -4 -4 9 14 17 20 19 20 6z m-85 -91
c-48 -49 -65 -59 -65 -41 0 5 18 22 40 38 22 15 40 33 40 40 0 11 21 24 29 16
3 -2 -17 -26 -44 -53z m-1295 16 c0 -2 -8 -10 -17 -17 -16 -13 -17 -12 -4 4
13 16 21 21 21 13z m1221 -91 c-4 -5 -9 -29 -10 -52 -1 -23 -6 -55 -11 -70 -9
-28 -9 -22 5 102 1 17 4 50 5 75 l3 45 7 -45 c4 -25 4 -49 1 -55z m-990 38
c13 -16 12 -17 -3 -4 -10 7 -18 15 -18 17 0 8 8 3 21 -13z m-1086 -47 c6 -4 1
-4 -10 2 -11 6 -29 21 -40 34 -19 22 -19 22 10 -2 17 -14 35 -29 40 -34z m123
16 c-4 -23 -27 -26 -25 -4 0 10 7 19 14 19 8 0 13 -7 11 -15z m199 2 c-3 -3
-12 -4 -19 -1 -8 3 -5 6 6 6 11 1 17 -2 13 -5z m494 -35 c93 -20 187 -32 265
-36 l122 -6 6 -36 c3 -20 6 -77 6 -127 0 -311 -233 -534 -560 -534 -170 0
-350 73 -395 160 -29 56 -48 207 -42 340 3 69 8 132 12 141 4 12 24 19 63 24
68 8 200 46 279 79 32 13 67 25 79 25 11 1 86 -13 165 -30z m-430 -1 c-18 -5
-38 -7 -44 -4 -7 2 -2 5 10 5 12 1 24 5 28 11 3 5 13 6 23 3 12 -5 8 -9 -17
-15z m-313 1 c12 0 22 -4 22 -9 0 -15 -31 -11 -60 6 -16 10 -18 13 -5 8 11 -4
30 -6 43 -5z m227 -19 c-16 -4 -68 -7 -115 -7 l-85 1 90 6 c134 9 146 9 110 0z
m1144 -278 c-12 -5 -179 165 -179 181 0 6 42 -31 94 -83 52 -52 90 -97 85 -98z
m588 127 c-14 -34 -14 -34 26 -71 23 -21 38 -40 35 -44 -3 -3 -23 11 -44 31
l-38 37 -16 -23 c-16 -24 -83 -89 -105 -101 -7 -5 15 20 49 55 40 40 69 79 81
110 10 26 20 46 22 43 2 -2 -2 -19 -10 -37z m-750 -41 c-2 -13 -4 -5 -4 17 -1
22 1 32 4 23 2 -10 2 -28 0 -40z m-10 -85 c-7 -54 -26 -127 -32 -121 -3 2 2
28 10 58 8 30 15 67 15 83 0 15 3 27 6 27 4 0 4 -21 1 -47z m543 -83 c-8 -5
-22 -9 -30 -9 -10 0 -8 3 5 9 27 12 43 12 25 0z m-610 -117 c-18 -32 -45 -73
-61 -92 l-28 -34 22 -18 c12 -10 18 -18 13 -19 -5 0 -17 7 -25 15 -15 12 -22
10 -61 -21 -44 -36 -139 -89 -145 -82 -2 2 25 18 61 37 81 42 169 130 214 214
19 36 36 64 39 62 2 -2 -11 -30 -29 -62z m285 -63 c-3 -5 -11 -10 -16 -10 -6
0 -7 5 -4 10 3 6 11 10 16 10 6 0 7 -4 4 -10z m-142 -142 c-62 -62 -116 -109
-120 -104 -4 4 0 13 9 20 14 10 15 15 5 25 -9 10 -9 12 3 9 16 -3 99 51 100
66 0 12 92 96 105 96 5 0 -41 -50 -102 -112z m-143 -3 c19 -19 30 -35 24 -35
-5 0 -24 16 -43 35 -19 19 -30 35 -24 35 5 0 24 -16 43 -35z m-328 -61 c-18
-8 -54 -17 -80 -19 -41 -4 -39 -3 17 10 35 8 66 17 69 20 3 3 10 5 16 4 6 0
-4 -7 -22 -15z m741 -186 c191 -184 238 -243 236 -294 0 -10 -7 2 -15 27 -10
33 -35 69 -85 123 l-70 75 -33 -35 c-19 -20 -36 -32 -39 -27 -3 5 7 22 24 37
16 15 29 31 29 36 0 4 -17 23 -37 41 -67 58 -237 222 -221 213 9 -5 104 -93
211 -196z m-1080 165 c-7 -2 -19 -2 -25 0 -7 3 -2 5 12 5 14 0 19 -2 13 -5z
m205 -8 c-8 -8 -177 -10 -185 -2 -3 4 38 7 92 7 54 0 96 -2 93 -5z m557 -6
c11 -17 -1 -21 -15 -4 -8 9 -8 15 -2 15 6 0 14 -5 17 -11z m-573 -61 c27 -29
48 -57 48 -63 0 -11 -109 96 -110 108 0 17 18 4 62 -45z m444 -15 c-31 -31
-59 -53 -63 -49 -9 8 87 104 106 105 7 1 -12 -25 -43 -56z m174 25 c0 -6 -7
-5 -15 2 -8 7 -15 17 -15 22 0 6 7 5 15 -2 8 -7 15 -17 15 -22z m40 -39 c0 -5
-7 -6 -15 -3 -8 4 -15 13 -15 21 0 13 3 13 15 3 8 -7 15 -16 15 -21z m-165 1
c3 -5 1 -10 -4 -10 -6 0 -11 5 -11 10 0 6 2 10 4 10 3 0 8 -4 11 -10z m285
-125 c0 -5 -25 15 -55 45 -30 30 -55 59 -55 64 0 13 109 -96 110 -109z m-694
58 c-7 -7 -26 7 -26 19 0 6 6 6 15 -2 9 -7 13 -15 11 -17z m284 2 c-7 -9 -15
-13 -17 -11 -7 7 7 26 19 26 6 0 6 -6 -2 -15z m-835 -38 l-38 -33 35 -26 35
-27 33 34 c19 19 36 33 38 30 3 -3 -11 -22 -31 -42 -19 -21 -63 -67 -96 -103
-34 -35 -61 -60 -61 -55 0 5 23 33 51 61 l51 52 -18 25 c-38 51 -48 50 -101
-6 -27 -29 -59 -65 -72 -82 l-23 -30 17 30 c10 17 29 43 44 59 33 36 159 146
168 146 3 0 -11 -15 -32 -33z m586 6 c13 -16 12 -17 -3 -4 -10 7 -18 15 -18
17 0 8 8 3 21 -13z m219 13 c0 -2 -8 -10 -17 -17 -16 -13 -17 -12 -4 4 13 16
21 21 21 13z m540 -126 c63 -50 83 -71 75 -78 -4 -4 -14 2 -24 13 -9 11 -27
29 -39 39 -22 19 -23 19 -38 -2 -8 -12 -20 -19 -26 -16 -7 5 -3 14 11 25 l22
18 -35 32 c-20 17 -36 36 -36 42 0 7 10 1 23 -13 13 -14 43 -41 67 -60z
m-1281 -26 c3 -16 1 -17 -13 -5 -19 16 -21 34 -3 29 6 -3 14 -13 16 -24z
m1391 -74 c8 -5 11 -12 7 -16 -4 -4 -15 0 -24 9 -18 18 -8 23 17 7z m-1660
-40 c-5 -22 -8 -27 -9 -13 -1 21 9 56 14 51 2 -2 0 -19 -5 -38z m100 -5 c-7
-9 -15 -13 -18 -10 -3 2 1 11 8 20 7 9 15 13 18 10 3 -2 -1 -11 -8 -20z m1598
-3 c2 -7 -2 -10 -12 -6 -9 3 -16 11 -16 16 0 13 23 5 28 -10z m-1638 -37 c-7
-9 -15 -13 -18 -10 -3 2 1 11 8 20 7 9 15 13 18 10 3 -2 -1 -11 -8 -20z m1693
-10 c15 -14 27 -31 27 -38 0 -7 4 -6 10 3 20 32 10 -25 -11 -59 l-20 -34 22 6
c16 4 19 3 11 -5 -6 -6 -18 -8 -26 -5 -14 6 -13 10 4 40 l20 34 -40 37 c-22
20 -40 38 -40 41 0 12 17 3 43 -20z m54 -7 c-3 -7 -5 -2 -5 12 0 14 2 19 5 13
2 -7 2 -19 0 -25z m-1791 -27 c-14 -15 -15 -24 -7 -40 16 -30 13 -40 -4 -11
-16 28 -20 74 -6 65 5 -3 13 0 16 6 4 5 10 8 13 5 3 -3 -3 -15 -12 -25z m10
-96 c-15 -11 -18 -23 -14 -59 3 -24 2 -50 -3 -58 -5 -8 -9 13 -9 54 0 55 3 67
18 71 28 7 28 7 8 -8z m1763 -87 c-1 -35 -4 -53 -6 -40 -2 12 -11 22 -19 22
-8 0 -13 -3 -12 -7 2 -5 -26 -36 -60 -71 -35 -34 -61 -66 -58 -70 2 -4 -4 -9
-15 -9 -10 -1 -19 1 -19 4 0 3 41 46 90 96 61 62 90 98 90 114 0 13 2 23 5 23
3 0 4 -28 4 -62z m-1720 -53 c19 -20 31 -38 28 -42 -7 -6 -77 57 -77 70 0 15
16 6 49 -28z m-56 -86 c-4 -4 -6 15 -3 44 l5 52 3 -44 c2 -24 0 -47 -5 -52z
m161 -28 c-6 -6 -64 50 -64 62 0 6 15 -5 34 -24 19 -18 33 -36 30 -38z m191
50 c-3 -6 -11 -11 -17 -11 -6 0 -6 6 2 15 14 17 26 13 15 -4z m1070 -11 c3 -5
1 -10 -4 -10 -6 0 -11 5 -11 10 0 6 2 10 4 10 3 0 8 -4 11 -10z m352 -12 c-3
-8 -6 -5 -6 6 -1 11 2 17 5 13 3 -3 4 -12 1 -19z m-1465 -24 c-7 -12 -11 -13
-17 -4 -4 7 -2 16 6 21 18 11 23 4 11 -17z m1171 -19 c15 -19 24 -35 20 -35
-9 0 -63 55 -63 64 0 15 17 3 43 -29z m-1833 -35 c165 -55 211 -62 312 -44 49
8 92 13 96 10 4 -2 18 -36 32 -75 13 -39 27 -71 30 -70 3 0 27 27 55 60 27 32
53 59 56 59 4 0 12 -13 19 -30 14 -33 83 -100 103 -100 7 0 24 29 36 65 13 36
27 65 31 65 4 0 14 -7 21 -16 7 -9 37 -29 65 -46 49 -27 54 -34 78 -101 37
-106 42 -166 18 -220 -21 -48 -40 -66 -51 -48 -5 7 -22 -4 -47 -30 -77 -80
-207 -119 -297 -90 -72 24 -127 117 -127 213 0 69 23 84 119 80 52 -2 89 2
114 13 43 18 109 20 140 4 22 -11 22 -11 -1 12 -20 21 -31 24 -85 22 -34 -2
-104 -3 -156 -3 -147 -1 -187 -35 -179 -157 4 -60 3 -63 -19 -63 -16 0 -23 6
-23 20 0 32 -14 23 -37 -23 -57 -118 -134 -157 -248 -126 -107 30 -160 178
-89 254 14 15 34 25 52 25 27 0 77 29 157 91 l40 31 100 -6 c99 -6 99 -6 60
10 -138 55 -176 52 -272 -20 -32 -24 -75 -47 -96 -51 -99 -19 -152 -136 -113
-247 13 -37 13 -37 -17 -47 -51 -18 -111 -13 -142 11 -56 44 -82 149 -49 196
9 13 37 36 62 52 34 20 63 53 102 112 45 67 64 88 103 107 l47 23 90 -21 c49
-11 106 -21 127 -21 32 1 19 7 -77 41 -177 61 -233 45 -326 -92 -35 -51 -67
-85 -105 -111 -78 -51 -94 -78 -92 -156 l1 -64 -27 7 c-82 20 -121 75 -121
170 0 70 3 74 53 97 28 13 51 39 91 100 66 101 96 134 138 154 48 21 136 12
248 -26z m541 23 c13 -16 12 -17 -3 -4 -17 13 -22 21 -14 21 2 0 10 -8 17 -17z
m1384 -2 c-3 -6 -11 -11 -17 -11 -6 0 -6 6 2 15 14 17 26 13 15 -4z m818 -10
c24 -14 60 -58 101 -121 54 -82 72 -101 111 -120 l47 -23 -4 -78 c-4 -104 -32
-143 -118 -164 -25 -6 -26 -5 -25 52 0 77 -18 110 -88 156 -41 28 -72 60 -108
113 -94 140 -154 157 -324 95 -97 -35 -105 -40 -70 -40 22 0 74 8 115 19 121
33 167 11 245 -115 34 -55 60 -83 91 -101 60 -35 84 -68 84 -116 0 -88 -60
-158 -134 -158 -24 0 -57 5 -74 11 -30 10 -30 11 -16 44 17 41 18 112 3 152
-17 46 -59 82 -114 98 -28 8 -69 29 -91 46 -21 17 -58 40 -82 51 -48 22 -93
17 -187 -22 l-50 -20 96 6 c100 7 137 -2 170 -42 25 -31 102 -74 131 -74 62 0
102 -83 79 -162 -19 -63 -66 -106 -131 -120 -106 -22 -164 8 -224 114 -19 34
-37 55 -40 49 -4 -6 -4 -15 -1 -21 4 -6 -6 -10 -22 -10 l-28 0 3 64 c7 121
-34 157 -175 155 -48 -1 -111 2 -139 6 -52 7 -103 -9 -120 -36 -5 -8 -1 -8 14
0 30 16 95 13 143 -5 30 -13 57 -15 105 -11 81 8 111 -4 124 -51 23 -86 -40
-210 -123 -241 -84 -32 -211 4 -294 82 -29 27 -53 44 -53 36 0 -8 -13 0 -30
19 -27 29 -30 39 -30 101 0 84 47 231 74 231 6 0 35 18 64 40 29 22 54 40 56
40 2 0 15 -29 28 -65 12 -36 28 -65 35 -65 18 0 79 57 104 97 l22 35 56 -62
56 -62 28 76 c16 42 34 76 40 76 7 -1 48 -7 92 -15 70 -12 89 -12 153 1 41 8
86 20 100 26 150 61 259 70 325 29z m-933 -106 c-7 -8 -17 -15 -22 -15 -6 0
-5 7 2 15 7 8 17 15 22 15 6 0 5 -7 -2 -15z"/>
<path d="M615 5109 l-16 -31 30 23 c17 12 28 26 25 31 -10 16 -24 8 -39 -23z"/>
<path d="M552 4774 c-23 -23 -30 -33 -17 -28 11 4 38 9 60 12 43 4 43 4 192
-119 84 -70 102 -76 137 -48 31 24 28 36 -4 19 -19 -10 -29 -3 -101 74 -125
132 -198 156 -267 90z"/>
<path d="M1340 4799 c-32 -13 -78 -56 -96 -91 -24 -47 -15 -53 24 -16 88 87
203 90 286 7 l39 -39 -7 32 c-8 39 -49 85 -93 104 -37 16 -116 17 -153 3z"/>
<path d="M2965 4578 c-114 -41 -255 -189 -311 -326 -29 -71 -30 -97 -2 -116
24 -17 36 -13 104 39 80 62 155 62 221 2 54 -49 29 -151 -57 -231 -58 -55
-114 -73 -182 -59 -46 9 -47 9 -32 -8 57 -63 171 -40 261 53 110 113 110 254
0 313 -33 18 -37 24 -37 60 0 50 -22 83 -68 102 l-35 14 34 35 c19 19 62 49
96 66 53 26 71 30 114 26 71 -7 99 -37 108 -114 7 -55 8 -57 16 -29 23 77 0
141 -60 169 -37 18 -125 20 -170 4z"/>
<path d="M1271 3106 c-8 -10 -9 -16 -1 -21 5 -3 13 1 16 10 9 22 -1 29 -15 11z"/>
</g>
</svg>
